<svg xmlns="http://www.w3.org/2000/svg" xmlns:xlink="http://www.w3.org/1999/xlink" width="605" zoomAndPan="magnify" viewBox="0 0 453.75 453.749989" height="605" preserveAspectRatio="xMidYMid meet" version="1.0"><defs><g/><clipPath id="63d3313b9c"><path d="M 0 98 L 453.5 98 L 453.5 356 L 0 356 Z M 0 98 " clip-rule="nonzero"/></clipPath><clipPath id="31ee19235f"><path d="M 0 0.335938 L 453.5 0.335938 L 453.5 257.5625 L 0 257.5625 Z M 0 0.335938 " clip-rule="nonzero"/></clipPath><clipPath id="59bdc9b9e5"><path d="M 5 0.335938 L 450 0.335938 L 450 257.5625 L 5 257.5625 Z M 5 0.335938 " clip-rule="nonzero"/></clipPath><clipPath id="01599fc445"><rect x="0" width="454" y="0" height="258"/></clipPath><clipPath id="48236b6cba"><rect x="0" width="293" y="0" height="142"/></clipPath><clipPath id="6ce74be154"><rect x="0" width="454" y="0" height="258"/></clipPath></defs><g clip-path="url(#63d3313b9c)"><g transform="matrix(1, 0, 0, 1, 0, 98)"><g clip-path="url(#6ce74be154)"><g clip-path="url(#31ee19235f)"><g transform="matrix(1, 0, 0, 1, 0, -0.000000000000028422)"><g clip-path="url(#01599fc445)"><path fill="#776fbf" d="M 220.890625 2.476562 C 305.851562 0.722656 376.828125 38.644531 413.320312 75.925781 C 451.222656 114.027344 454.644531 151.492188 437.238281 167.695312 C 425.550781 179.292969 406.402344 183.488281 384.996094 186.082031 C 385.507812 196.78125 385.191406 207.152344 384.097656 217.085938 C 382.601562 230.785156 379.628906 243.667969 375.359375 255.484375 C 370.578125 243.488281 364.109375 231.300781 355.792969 219.363281 C 348.910156 209.46875 340.753906 199.75 331.300781 190.46875 C 300.695312 192.628906 270.492188 195.898438 239.144531 199.335938 C 201.792969 203.609375 166.660156 206.316406 128.796875 207.0625 C 91.828125 207.136719 52.113281 205.253906 26.425781 184.832031 C 1.5 165.785156 -1.6875 123.4375 32.777344 82.078125 C 65.617188 41.347656 136.117188 1.601562 220.890625 2.476562 " fill-opacity="1" fill-rule="nonzero"/><g clip-path="url(#59bdc9b9e5)"><path fill="#0e0d0c" d="M 220.890625 2.476562 L 220.851562 0.40625 C 222.765625 0.367188 224.667969 0.347656 226.5625 0.347656 C 268.097656 0.347656 306.140625 9.675781 338.296875 23.601562 C 370.460938 37.53125 396.746094 56.035156 414.792969 74.480469 L 414.785156 74.464844 C 438.832031 98.652344 449.359375 122.726562 449.378906 141.808594 C 449.390625 153.117188 445.617188 162.730469 438.652344 169.210938 L 437.238281 167.695312 L 438.699219 169.164062 C 432.53125 175.277344 424.507812 179.355469 415.386719 182.242188 C 406.257812 185.128906 396.007812 186.832031 385.246094 188.136719 L 384.996094 186.082031 L 387.066406 185.984375 C 387.222656 189.347656 387.300781 192.683594 387.300781 195.988281 C 387.300781 203.277344 386.914062 210.398438 386.15625 217.3125 C 384.640625 231.160156 381.628906 244.207031 377.304688 256.191406 C 377.015625 257 376.253906 257.539062 375.394531 257.554688 C 374.53125 257.570312 373.761719 257.050781 373.4375 256.253906 C 368.714844 244.40625 362.324219 232.351562 354.101562 220.542969 C 347.289062 210.757812 339.214844 201.136719 329.851562 191.945312 L 331.300781 190.46875 L 331.445312 192.535156 C 300.894531 194.691406 270.714844 197.957031 239.367188 201.390625 L 239.378906 201.390625 C 201.972656 205.671875 166.78125 208.382812 128.839844 209.132812 L 128.800781 209.132812 C 128.152344 209.132812 127.511719 209.132812 126.871094 209.132812 C 108.625 209.132812 89.71875 208.597656 72.105469 205.507812 C 54.5 202.425781 38.148438 196.785156 25.140625 186.449219 L 26.425781 184.832031 L 25.171875 186.476562 C 12.488281 176.792969 5.230469 161.324219 5.25 143.269531 C 5.25 124.21875 13.253906 102.28125 31.195312 80.75 L 32.777344 82.078125 L 31.171875 80.777344 C 47.660156 60.335938 73.34375 40.277344 105.441406 25.28125 C 137.53125 10.296875 176.050781 0.390625 218.148438 0.390625 C 219.070312 0.390625 219.992188 0.394531 220.917969 0.40625 L 220.890625 2.476562 L 220.851562 0.40625 L 220.890625 2.476562 L 220.871094 4.546875 C 219.964844 4.535156 219.058594 4.53125 218.148438 4.53125 C 176.703125 4.53125 138.769531 14.285156 107.191406 29.035156 C 75.609375 43.777344 50.386719 63.527344 34.386719 83.375 L 34.371094 83.402344 C 16.921875 104.339844 9.378906 125.390625 9.386719 143.269531 C 9.394531 160.234375 16.105469 174.328125 27.683594 183.179688 L 27.714844 183.207031 C 39.953125 192.945312 55.617188 198.421875 72.816406 201.433594 C 90.011719 204.445312 108.703125 204.996094 126.871094 204.992188 C 127.511719 204.992188 128.152344 204.992188 128.789062 204.992188 L 128.796875 207.0625 L 128.757812 204.992188 C 166.546875 204.246094 201.601562 201.546875 238.910156 197.277344 L 238.917969 197.277344 C 270.269531 193.839844 300.5 190.566406 331.15625 188.40625 C 331.746094 188.363281 332.328125 188.578125 332.75 188.992188 C 342.292969 198.359375 350.53125 208.175781 357.496094 218.175781 C 365.898438 230.246094 372.441406 242.574219 377.285156 254.71875 L 375.359375 255.484375 L 373.417969 254.78125 C 377.625 243.128906 380.558594 230.402344 382.046875 216.859375 C 382.789062 210.101562 383.164062 203.132812 383.164062 195.988281 C 383.164062 192.753906 383.089844 189.484375 382.933594 186.183594 C 382.878906 185.09375 383.671875 184.15625 384.75 184.027344 C 395.394531 182.738281 405.417969 181.050781 414.136719 178.292969 C 422.867188 175.53125 430.257812 171.710938 435.785156 166.226562 L 435.828125 166.179688 C 441.828125 160.589844 445.238281 152.230469 445.242188 141.808594 C 445.265625 124.273438 435.386719 101.023438 411.855469 77.386719 L 411.84375 77.375 C 394.222656 59.367188 368.34375 41.113281 336.65625 27.402344 C 304.96875 13.683594 267.472656 4.488281 226.5625 4.488281 C 224.699219 4.488281 222.820312 4.503906 220.933594 4.546875 L 220.871094 4.546875 L 220.890625 2.476562 " fill-opacity="1" fill-rule="nonzero"/></g></g></g></g><g transform="matrix(1, 0, 0, 1, 60, 30)"><g clip-path="url(#48236b6cba)"><g fill="#ffffff" fill-opacity="0.302"><g transform="translate(14.870456, 123.834227)"><g><path d="M 39.390625 -44.5625 C 39.648438 -48.09375 39.910156 -51.34375 40.171875 -54.3125 C 40.429688 -57.28125 40.6875 -59.96875 40.9375 -62.375 L 41.96875 -72.71875 C 35.257812 -71.6875 28.113281 -69.707031 20.53125 -66.78125 C 18.726562 -66.082031 17.050781 -65.734375 15.5 -65.734375 C 13.175781 -65.734375 11.046875 -66.378906 9.109375 -67.671875 C 7.171875 -68.960938 5.640625 -70.859375 4.515625 -73.359375 C 5.035156 -75.253906 6.003906 -76.675781 7.421875 -77.625 C 8.847656 -78.570312 10.804688 -79.519531 13.296875 -80.46875 C 25.265625 -84.851562 38.957031 -87.003906 54.375 -86.921875 C 61.695312 -86.921875 69.335938 -86.617188 77.296875 -86.015625 C 85.265625 -85.410156 89.9375 -85.066406 91.3125 -84.984375 L 100.359375 -84.34375 C 100.703125 -84.34375 101.28125 -84.34375 102.09375 -84.34375 C 102.914062 -84.34375 103.582031 -84.144531 104.09375 -83.75 C 104.613281 -83.363281 104.875 -82.742188 104.875 -81.890625 C 104.875 -79.734375 103.320312 -78.484375 100.21875 -78.140625 C 92.46875 -77.273438 86.957031 -76.671875 83.6875 -76.328125 C 80.332031 -76.160156 77.796875 -75.988281 76.078125 -75.8125 C 69.359375 -75.382812 64.320312 -75.039062 60.96875 -74.78125 C 58.894531 -74.601562 57.46875 -74.363281 56.6875 -74.0625 C 55.914062 -73.769531 55.421875 -73.253906 55.203125 -72.515625 C 54.992188 -71.785156 54.804688 -70.257812 54.640625 -67.9375 C 54.203125 -62.507812 53.296875 -53.164062 51.921875 -39.90625 C 50.546875 -27.9375 49.6875 -19.671875 49.34375 -15.109375 C 49.25 -12.609375 48.6875 -9.597656 47.65625 -6.078125 C 46.96875 -3.835938 46.40625 -2.347656 45.96875 -1.609375 C 45.539062 -0.878906 44.914062 -0.425781 44.09375 -0.25 C 43.28125 -0.0820312 41.753906 -0.0390625 39.515625 -0.125 C 37.878906 -0.125 36.609375 -0.488281 35.703125 -1.21875 C 34.804688 -1.957031 34.359375 -2.972656 34.359375 -4.265625 C 34.359375 -4.523438 34.441406 -5.082031 34.609375 -5.9375 C 36.503906 -13.425781 38.097656 -26.300781 39.390625 -44.5625 Z M 39.390625 -44.5625 "/></g></g></g><g fill="#ffffff" fill-opacity="0.302"><g transform="translate(113.11363, 123.834227)"><g><path d="M 60.828125 -60.0625 C 60.398438 -59.195312 59.023438 -56.828125 56.703125 -52.953125 C 58.847656 -51.660156 60.351562 -50.84375 61.21875 -50.5 C 65.78125 -48.78125 69.203125 -46.175781 71.484375 -42.6875 C 73.765625 -39.195312 74.90625 -35.34375 74.90625 -31.125 C 74.90625 -26.988281 73.832031 -22.898438 71.6875 -18.859375 C 66.34375 -8.953125 57.726562 -1.03125 45.84375 4.90625 C 42.914062 6.375 40.035156 7.109375 37.203125 7.109375 C 33.066406 7.109375 29.234375 5.644531 25.703125 2.71875 C 24.328125 1.59375 22.691406 0.34375 20.796875 -1.03125 C 20.617188 -0.519531 20.421875 0.0976562 20.203125 0.828125 C 19.992188 1.566406 19.757812 2.109375 19.5 2.453125 C 18.46875 4.003906 17.175781 4.78125 15.625 4.78125 C 14.25 4.78125 13 4.21875 11.875 3.09375 C 8.78125 0.257812 7.234375 -2.96875 7.234375 -6.59375 C 7.234375 -9.34375 7.1875 -11.75 7.09375 -13.8125 C 7.007812 -15.882812 6.925781 -17.609375 6.84375 -18.984375 C 6.757812 -20.703125 6.671875 -22.851562 6.578125 -25.4375 C 6.492188 -28.019531 6.453125 -31.035156 6.453125 -34.484375 C 6.453125 -41.023438 6.796875 -46.878906 7.484375 -52.046875 C 8.429688 -59.628906 10.242188 -66.734375 12.921875 -73.359375 C 14.984375 -78.359375 18.054688 -82.273438 22.140625 -85.109375 C 26.234375 -87.953125 31.082031 -89.632812 36.6875 -90.15625 C 39.269531 -90.320312 41.25 -90.40625 42.625 -90.40625 C 48.988281 -90.40625 54.328125 -89.03125 58.640625 -86.28125 C 60.878906 -84.894531 62.617188 -83.082031 63.859375 -80.84375 C 65.109375 -78.613281 65.734375 -76.207031 65.734375 -73.625 C 65.734375 -71.46875 65.257812 -69.3125 64.3125 -67.15625 L 63.03125 -64.578125 C 62.425781 -63.203125 61.691406 -61.695312 60.828125 -60.0625 Z M 50.625 -70.78125 C 51.0625 -71.894531 51.453125 -73.742188 51.796875 -76.328125 L 52.171875 -79.171875 C 49.585938 -80.296875 47.132812 -80.859375 44.8125 -80.859375 C 42.832031 -80.859375 40.984375 -80.554688 39.265625 -79.953125 C 35.554688 -78.742188 32.472656 -76.910156 30.015625 -74.453125 C 27.566406 -72.003906 25.628906 -69.316406 24.203125 -66.390625 C 22.785156 -63.460938 21.390625 -59.84375 20.015625 -55.53125 C 18.984375 -52.175781 18.46875 -48.429688 18.46875 -44.296875 C 18.46875 -42.054688 18.640625 -38.785156 18.984375 -34.484375 C 19.160156 -33.191406 19.332031 -31.082031 19.5 -28.15625 C 19.582031 -25.832031 20.054688 -21.050781 20.921875 -13.8125 L 21.4375 -9.5625 C 21.957031 -9.382812 22.816406 -9.210938 24.015625 -9.046875 C 25.660156 -8.867188 26.910156 -8.519531 27.765625 -8 C 28.546875 -7.570312 29.320312 -6.863281 30.09375 -5.875 C 30.863281 -4.882812 31.46875 -4.128906 31.90625 -3.609375 C 37.070312 -4.648438 41.484375 -6.757812 45.140625 -9.9375 C 48.796875 -13.125 52.390625 -17.257812 55.921875 -22.34375 C 58.585938 -26.476562 60.269531 -30.179688 60.96875 -33.453125 C 61.21875 -34.742188 61.34375 -35.90625 61.34375 -36.9375 C 61.34375 -39.257812 60.71875 -41.023438 59.46875 -42.234375 C 58.226562 -43.441406 56.53125 -44.046875 54.375 -44.046875 C 53.082031 -44.046875 51.878906 -43.875 50.765625 -43.53125 C 46.890625 -42.40625 42.925781 -39.945312 38.875 -36.15625 C 36.8125 -34.351562 34.742188 -33.453125 32.671875 -33.453125 C 31.378906 -33.453125 30.046875 -33.835938 28.671875 -34.609375 C 27.035156 -35.554688 25.65625 -36.585938 24.53125 -37.703125 C 23.414062 -38.828125 22.472656 -40.296875 21.703125 -42.109375 L 24.671875 -44.171875 C 27.765625 -46.410156 30.128906 -48.003906 31.765625 -48.953125 C 40.117188 -53.429688 46.40625 -60.707031 50.625 -70.78125 Z M 50.625 -70.78125 "/></g></g></g><g fill="#ffffff" fill-opacity="0.302"><g transform="translate(194.445051, 123.834227)"><g><path d="M 58.25 -47.265625 C 56.1875 -47.097656 54.679688 -47.015625 53.734375 -47.015625 C 47.359375 -46.578125 42.445312 -46.101562 39 -45.59375 C 37.101562 -45.25 34.78125 -42.925781 32.03125 -38.625 C 29.707031 -35 28.113281 -29.269531 27.25 -21.4375 L 25.828125 -16.796875 C 25.398438 -15.242188 24.753906 -13.90625 23.890625 -12.78125 C 23.378906 -12.175781 22.710938 -11.679688 21.890625 -11.296875 C 21.078125 -10.910156 20.238281 -10.71875 19.375 -10.71875 C 19.800781 -10.71875 19.628906 -11.191406 18.859375 -12.140625 C 17.140625 -14.460938 15.867188 -16.332031 15.046875 -17.75 C 14.222656 -19.175781 13.8125 -20.796875 13.8125 -22.609375 C 13.8125 -23.378906 13.941406 -24.28125 14.203125 -25.3125 C 14.640625 -26.601562 14.898438 -27.894531 14.984375 -29.1875 C 15.148438 -29.707031 15.316406 -30.460938 15.484375 -31.453125 C 15.660156 -32.441406 15.878906 -33.28125 16.140625 -33.96875 C 16.398438 -34.738281 16.53125 -35.46875 16.53125 -36.15625 C 16.53125 -38.050781 15.539062 -39.863281 13.5625 -41.59375 C 10.632812 -44.082031 9.171875 -46.363281 9.171875 -48.4375 C 9.171875 -50.84375 11.066406 -53.082031 14.859375 -55.15625 C 15.203125 -55.320312 15.695312 -55.617188 16.34375 -56.046875 C 16.988281 -56.484375 17.566406 -56.742188 18.078125 -56.828125 C 19.890625 -57.253906 21.203125 -58.070312 22.015625 -59.28125 C 22.835938 -60.488281 23.550781 -62.164062 24.15625 -64.3125 C 25.789062 -70 27.597656 -76.113281 29.578125 -82.65625 L 31 -87.3125 C 31.164062 -87.914062 31.640625 -89.035156 32.421875 -90.671875 C 36.203125 -90.753906 38.890625 -89.71875 40.484375 -87.5625 C 42.078125 -85.414062 42.875 -82.617188 42.875 -79.171875 C 42.875 -78.648438 42.789062 -77.875 42.625 -76.84375 L 41.453125 -71.6875 L 40.6875 -68.84375 L 39.390625 -62 L 46.234375 -61.484375 L 62.640625 -60.0625 L 67.03125 -73.625 L 68.0625 -78.015625 C 70.5625 -81.285156 72.757812 -82.054688 74.65625 -80.328125 C 76.457031 -78.691406 78.023438 -76.863281 79.359375 -74.84375 C 80.703125 -72.820312 81.375 -70.519531 81.375 -67.9375 C 81.375 -65.4375 80.640625 -62.25 79.171875 -58.375 C 79.859375 -57.945312 80.675781 -57.582031 81.625 -57.28125 C 82.570312 -56.976562 83.21875 -56.785156 83.5625 -56.703125 C 86.226562 -55.921875 88.289062 -55.015625 89.75 -53.984375 C 91.21875 -52.953125 92.125 -51.101562 92.46875 -48.4375 C 91.4375 -46.800781 90.0625 -45.722656 88.34375 -45.203125 C 86.625 -44.691406 84.597656 -44.5625 82.265625 -44.8125 C 81.410156 -44.90625 80.296875 -44.953125 78.921875 -44.953125 C 77.023438 -44.953125 75.773438 -44.5625 75.171875 -43.78125 C 74.566406 -43.007812 73.832031 -41.203125 72.96875 -38.359375 L 71.421875 -33.328125 C 69.359375 -26.609375 67.875 -21.222656 66.96875 -17.171875 C 66.0625 -13.128906 65.4375 -8.910156 65.09375 -4.515625 C 65.09375 -4.171875 65.070312 -3.460938 65.03125 -2.390625 C 64.988281 -1.316406 64.707031 -0.457031 64.1875 0.1875 C 63.675781 0.832031 62.859375 1.15625 61.734375 1.15625 C 58.890625 1.414062 57.171875 -0.0859375 56.578125 -3.359375 C 54.503906 -7.921875 53.46875 -12.3125 53.46875 -16.53125 C 53.46875 -18.34375 53.554688 -19.722656 53.734375 -20.671875 C 54.679688 -26.179688 55.925781 -33.195312 57.46875 -41.71875 Z M 58.25 -47.265625 "/></g></g></g><g fill="#ffffff" fill-opacity="0.502"><g transform="translate(9.162395, 118.126159)"><g><path d="M 39.390625 -44.5625 C 39.648438 -48.09375 39.910156 -51.34375 40.171875 -54.3125 C 40.429688 -57.28125 40.6875 -59.96875 40.9375 -62.375 L 41.96875 -72.71875 C 35.257812 -71.6875 28.113281 -69.707031 20.53125 -66.78125 C 18.726562 -66.082031 17.050781 -65.734375 15.5 -65.734375 C 13.175781 -65.734375 11.046875 -66.378906 9.109375 -67.671875 C 7.171875 -68.960938 5.640625 -70.859375 4.515625 -73.359375 C 5.035156 -75.253906 6.003906 -76.675781 7.421875 -77.625 C 8.847656 -78.570312 10.804688 -79.519531 13.296875 -80.46875 C 25.265625 -84.851562 38.957031 -87.003906 54.375 -86.921875 C 61.695312 -86.921875 69.335938 -86.617188 77.296875 -86.015625 C 85.265625 -85.410156 89.9375 -85.066406 91.3125 -84.984375 L 100.359375 -84.34375 C 100.703125 -84.34375 101.28125 -84.34375 102.09375 -84.34375 C 102.914062 -84.34375 103.582031 -84.144531 104.09375 -83.75 C 104.613281 -83.363281 104.875 -82.742188 104.875 -81.890625 C 104.875 -79.734375 103.320312 -78.484375 100.21875 -78.140625 C 92.46875 -77.273438 86.957031 -76.671875 83.6875 -76.328125 C 80.332031 -76.160156 77.796875 -75.988281 76.078125 -75.8125 C 69.359375 -75.382812 64.320312 -75.039062 60.96875 -74.78125 C 58.894531 -74.601562 57.46875 -74.363281 56.6875 -74.0625 C 55.914062 -73.769531 55.421875 -73.253906 55.203125 -72.515625 C 54.992188 -71.785156 54.804688 -70.257812 54.640625 -67.9375 C 54.203125 -62.507812 53.296875 -53.164062 51.921875 -39.90625 C 50.546875 -27.9375 49.6875 -19.671875 49.34375 -15.109375 C 49.25 -12.609375 48.6875 -9.597656 47.65625 -6.078125 C 46.96875 -3.835938 46.40625 -2.347656 45.96875 -1.609375 C 45.539062 -0.878906 44.914062 -0.425781 44.09375 -0.25 C 43.28125 -0.0820312 41.753906 -0.0390625 39.515625 -0.125 C 37.878906 -0.125 36.609375 -0.488281 35.703125 -1.21875 C 34.804688 -1.957031 34.359375 -2.972656 34.359375 -4.265625 C 34.359375 -4.523438 34.441406 -5.082031 34.609375 -5.9375 C 36.503906 -13.425781 38.097656 -26.300781 39.390625 -44.5625 Z M 39.390625 -44.5625 "/></g></g></g><g fill="#ffffff" fill-opacity="0.502"><g transform="translate(107.40557, 118.126159)"><g><path d="M 60.828125 -60.0625 C 60.398438 -59.195312 59.023438 -56.828125 56.703125 -52.953125 C 58.847656 -51.660156 60.351562 -50.84375 61.21875 -50.5 C 65.78125 -48.78125 69.203125 -46.175781 71.484375 -42.6875 C 73.765625 -39.195312 74.90625 -35.34375 74.90625 -31.125 C 74.90625 -26.988281 73.832031 -22.898438 71.6875 -18.859375 C 66.34375 -8.953125 57.726562 -1.03125 45.84375 4.90625 C 42.914062 6.375 40.035156 7.109375 37.203125 7.109375 C 33.066406 7.109375 29.234375 5.644531 25.703125 2.71875 C 24.328125 1.59375 22.691406 0.34375 20.796875 -1.03125 C 20.617188 -0.519531 20.421875 0.0976562 20.203125 0.828125 C 19.992188 1.566406 19.757812 2.109375 19.5 2.453125 C 18.46875 4.003906 17.175781 4.78125 15.625 4.78125 C 14.25 4.78125 13 4.21875 11.875 3.09375 C 8.78125 0.257812 7.234375 -2.96875 7.234375 -6.59375 C 7.234375 -9.34375 7.1875 -11.75 7.09375 -13.8125 C 7.007812 -15.882812 6.925781 -17.609375 6.84375 -18.984375 C 6.757812 -20.703125 6.671875 -22.851562 6.578125 -25.4375 C 6.492188 -28.019531 6.453125 -31.035156 6.453125 -34.484375 C 6.453125 -41.023438 6.796875 -46.878906 7.484375 -52.046875 C 8.429688 -59.628906 10.242188 -66.734375 12.921875 -73.359375 C 14.984375 -78.359375 18.054688 -82.273438 22.140625 -85.109375 C 26.234375 -87.953125 31.082031 -89.632812 36.6875 -90.15625 C 39.269531 -90.320312 41.25 -90.40625 42.625 -90.40625 C 48.988281 -90.40625 54.328125 -89.03125 58.640625 -86.28125 C 60.878906 -84.894531 62.617188 -83.082031 63.859375 -80.84375 C 65.109375 -78.613281 65.734375 -76.207031 65.734375 -73.625 C 65.734375 -71.46875 65.257812 -69.3125 64.3125 -67.15625 L 63.03125 -64.578125 C 62.425781 -63.203125 61.691406 -61.695312 60.828125 -60.0625 Z M 50.625 -70.78125 C 51.0625 -71.894531 51.453125 -73.742188 51.796875 -76.328125 L 52.171875 -79.171875 C 49.585938 -80.296875 47.132812 -80.859375 44.8125 -80.859375 C 42.832031 -80.859375 40.984375 -80.554688 39.265625 -79.953125 C 35.554688 -78.742188 32.472656 -76.910156 30.015625 -74.453125 C 27.566406 -72.003906 25.628906 -69.316406 24.203125 -66.390625 C 22.785156 -63.460938 21.390625 -59.84375 20.015625 -55.53125 C 18.984375 -52.175781 18.46875 -48.429688 18.46875 -44.296875 C 18.46875 -42.054688 18.640625 -38.785156 18.984375 -34.484375 C 19.160156 -33.191406 19.332031 -31.082031 19.5 -28.15625 C 19.582031 -25.832031 20.054688 -21.050781 20.921875 -13.8125 L 21.4375 -9.5625 C 21.957031 -9.382812 22.816406 -9.210938 24.015625 -9.046875 C 25.660156 -8.867188 26.910156 -8.519531 27.765625 -8 C 28.546875 -7.570312 29.320312 -6.863281 30.09375 -5.875 C 30.863281 -4.882812 31.46875 -4.128906 31.90625 -3.609375 C 37.070312 -4.648438 41.484375 -6.757812 45.140625 -9.9375 C 48.796875 -13.125 52.390625 -17.257812 55.921875 -22.34375 C 58.585938 -26.476562 60.269531 -30.179688 60.96875 -33.453125 C 61.21875 -34.742188 61.34375 -35.90625 61.34375 -36.9375 C 61.34375 -39.257812 60.71875 -41.023438 59.46875 -42.234375 C 58.226562 -43.441406 56.53125 -44.046875 54.375 -44.046875 C 53.082031 -44.046875 51.878906 -43.875 50.765625 -43.53125 C 46.890625 -42.40625 42.925781 -39.945312 38.875 -36.15625 C 36.8125 -34.351562 34.742188 -33.453125 32.671875 -33.453125 C 31.378906 -33.453125 30.046875 -33.835938 28.671875 -34.609375 C 27.035156 -35.554688 25.65625 -36.585938 24.53125 -37.703125 C 23.414062 -38.828125 22.472656 -40.296875 21.703125 -42.109375 L 24.671875 -44.171875 C 27.765625 -46.410156 30.128906 -48.003906 31.765625 -48.953125 C 40.117188 -53.429688 46.40625 -60.707031 50.625 -70.78125 Z M 50.625 -70.78125 "/></g></g></g><g fill="#ffffff" fill-opacity="0.502"><g transform="translate(188.736991, 118.126159)"><g><path d="M 58.25 -47.265625 C 56.1875 -47.097656 54.679688 -47.015625 53.734375 -47.015625 C 47.359375 -46.578125 42.445312 -46.101562 39 -45.59375 C 37.101562 -45.25 34.78125 -42.925781 32.03125 -38.625 C 29.707031 -35 28.113281 -29.269531 27.25 -21.4375 L 25.828125 -16.796875 C 25.398438 -15.242188 24.753906 -13.90625 23.890625 -12.78125 C 23.378906 -12.175781 22.710938 -11.679688 21.890625 -11.296875 C 21.078125 -10.910156 20.238281 -10.71875 19.375 -10.71875 C 19.800781 -10.71875 19.628906 -11.191406 18.859375 -12.140625 C 17.140625 -14.460938 15.867188 -16.332031 15.046875 -17.75 C 14.222656 -19.175781 13.8125 -20.796875 13.8125 -22.609375 C 13.8125 -23.378906 13.941406 -24.28125 14.203125 -25.3125 C 14.640625 -26.601562 14.898438 -27.894531 14.984375 -29.1875 C 15.148438 -29.707031 15.316406 -30.460938 15.484375 -31.453125 C 15.660156 -32.441406 15.878906 -33.28125 16.140625 -33.96875 C 16.398438 -34.738281 16.53125 -35.46875 16.53125 -36.15625 C 16.53125 -38.050781 15.539062 -39.863281 13.5625 -41.59375 C 10.632812 -44.082031 9.171875 -46.363281 9.171875 -48.4375 C 9.171875 -50.84375 11.066406 -53.082031 14.859375 -55.15625 C 15.203125 -55.320312 15.695312 -55.617188 16.34375 -56.046875 C 16.988281 -56.484375 17.566406 -56.742188 18.078125 -56.828125 C 19.890625 -57.253906 21.203125 -58.070312 22.015625 -59.28125 C 22.835938 -60.488281 23.550781 -62.164062 24.15625 -64.3125 C 25.789062 -70 27.597656 -76.113281 29.578125 -82.65625 L 31 -87.3125 C 31.164062 -87.914062 31.640625 -89.035156 32.421875 -90.671875 C 36.203125 -90.753906 38.890625 -89.71875 40.484375 -87.5625 C 42.078125 -85.414062 42.875 -82.617188 42.875 -79.171875 C 42.875 -78.648438 42.789062 -77.875 42.625 -76.84375 L 41.453125 -71.6875 L 40.6875 -68.84375 L 39.390625 -62 L 46.234375 -61.484375 L 62.640625 -60.0625 L 67.03125 -73.625 L 68.0625 -78.015625 C 70.5625 -81.285156 72.757812 -82.054688 74.65625 -80.328125 C 76.457031 -78.691406 78.023438 -76.863281 79.359375 -74.84375 C 80.703125 -72.820312 81.375 -70.519531 81.375 -67.9375 C 81.375 -65.4375 80.640625 -62.25 79.171875 -58.375 C 79.859375 -57.945312 80.675781 -57.582031 81.625 -57.28125 C 82.570312 -56.976562 83.21875 -56.785156 83.5625 -56.703125 C 86.226562 -55.921875 88.289062 -55.015625 89.75 -53.984375 C 91.21875 -52.953125 92.125 -51.101562 92.46875 -48.4375 C 91.4375 -46.800781 90.0625 -45.722656 88.34375 -45.203125 C 86.625 -44.691406 84.597656 -44.5625 82.265625 -44.8125 C 81.410156 -44.90625 80.296875 -44.953125 78.921875 -44.953125 C 77.023438 -44.953125 75.773438 -44.5625 75.171875 -43.78125 C 74.566406 -43.007812 73.832031 -41.203125 72.96875 -38.359375 L 71.421875 -33.328125 C 69.359375 -26.609375 67.875 -21.222656 66.96875 -17.171875 C 66.0625 -13.128906 65.4375 -8.910156 65.09375 -4.515625 C 65.09375 -4.171875 65.070312 -3.460938 65.03125 -2.390625 C 64.988281 -1.316406 64.707031 -0.457031 64.1875 0.1875 C 63.675781 0.832031 62.859375 1.15625 61.734375 1.15625 C 58.890625 1.414062 57.171875 -0.0859375 56.578125 -3.359375 C 54.503906 -7.921875 53.46875 -12.3125 53.46875 -16.53125 C 53.46875 -18.34375 53.554688 -19.722656 53.734375 -20.671875 C 54.679688 -26.179688 55.925781 -33.195312 57.46875 -41.71875 Z M 58.25 -47.265625 "/></g></g></g><g fill="#000000" fill-opacity="1"><g transform="translate(3.454331, 112.418098)"><g><path d="M 39.390625 -44.5625 C 39.648438 -48.09375 39.910156 -51.34375 40.171875 -54.3125 C 40.429688 -57.28125 40.6875 -59.96875 40.9375 -62.375 L 41.96875 -72.71875 C 35.257812 -71.6875 28.113281 -69.707031 20.53125 -66.78125 C 18.726562 -66.082031 17.050781 -65.734375 15.5 -65.734375 C 13.175781 -65.734375 11.046875 -66.378906 9.109375 -67.671875 C 7.171875 -68.960938 5.640625 -70.859375 4.515625 -73.359375 C 5.035156 -75.253906 6.003906 -76.675781 7.421875 -77.625 C 8.847656 -78.570312 10.804688 -79.519531 13.296875 -80.46875 C 25.265625 -84.851562 38.957031 -87.003906 54.375 -86.921875 C 61.695312 -86.921875 69.335938 -86.617188 77.296875 -86.015625 C 85.265625 -85.410156 89.9375 -85.066406 91.3125 -84.984375 L 100.359375 -84.34375 C 100.703125 -84.34375 101.28125 -84.34375 102.09375 -84.34375 C 102.914062 -84.34375 103.582031 -84.144531 104.09375 -83.75 C 104.613281 -83.363281 104.875 -82.742188 104.875 -81.890625 C 104.875 -79.734375 103.320312 -78.484375 100.21875 -78.140625 C 92.46875 -77.273438 86.957031 -76.671875 83.6875 -76.328125 C 80.332031 -76.160156 77.796875 -75.988281 76.078125 -75.8125 C 69.359375 -75.382812 64.320312 -75.039062 60.96875 -74.78125 C 58.894531 -74.601562 57.46875 -74.363281 56.6875 -74.0625 C 55.914062 -73.769531 55.421875 -73.253906 55.203125 -72.515625 C 54.992188 -71.785156 54.804688 -70.257812 54.640625 -67.9375 C 54.203125 -62.507812 53.296875 -53.164062 51.921875 -39.90625 C 50.546875 -27.9375 49.6875 -19.671875 49.34375 -15.109375 C 49.25 -12.609375 48.6875 -9.597656 47.65625 -6.078125 C 46.96875 -3.835938 46.40625 -2.347656 45.96875 -1.609375 C 45.539062 -0.878906 44.914062 -0.425781 44.09375 -0.25 C 43.28125 -0.0820312 41.753906 -0.0390625 39.515625 -0.125 C 37.878906 -0.125 36.609375 -0.488281 35.703125 -1.21875 C 34.804688 -1.957031 34.359375 -2.972656 34.359375 -4.265625 C 34.359375 -4.523438 34.441406 -5.082031 34.609375 -5.9375 C 36.503906 -13.425781 38.097656 -26.300781 39.390625 -44.5625 Z M 39.390625 -44.5625 "/></g></g></g><g fill="#000000" fill-opacity="1"><g transform="translate(101.697505, 112.418098)"><g><path d="M 60.828125 -60.0625 C 60.398438 -59.195312 59.023438 -56.828125 56.703125 -52.953125 C 58.847656 -51.660156 60.351562 -50.84375 61.21875 -50.5 C 65.78125 -48.78125 69.203125 -46.175781 71.484375 -42.6875 C 73.765625 -39.195312 74.90625 -35.34375 74.90625 -31.125 C 74.90625 -26.988281 73.832031 -22.898438 71.6875 -18.859375 C 66.34375 -8.953125 57.726562 -1.03125 45.84375 4.90625 C 42.914062 6.375 40.035156 7.109375 37.203125 7.109375 C 33.066406 7.109375 29.234375 5.644531 25.703125 2.71875 C 24.328125 1.59375 22.691406 0.34375 20.796875 -1.03125 C 20.617188 -0.519531 20.421875 0.0976562 20.203125 0.828125 C 19.992188 1.566406 19.757812 2.109375 19.5 2.453125 C 18.46875 4.003906 17.175781 4.78125 15.625 4.78125 C 14.25 4.78125 13 4.21875 11.875 3.09375 C 8.78125 0.257812 7.234375 -2.96875 7.234375 -6.59375 C 7.234375 -9.34375 7.1875 -11.75 7.09375 -13.8125 C 7.007812 -15.882812 6.925781 -17.609375 6.84375 -18.984375 C 6.757812 -20.703125 6.671875 -22.851562 6.578125 -25.4375 C 6.492188 -28.019531 6.453125 -31.035156 6.453125 -34.484375 C 6.453125 -41.023438 6.796875 -46.878906 7.484375 -52.046875 C 8.429688 -59.628906 10.242188 -66.734375 12.921875 -73.359375 C 14.984375 -78.359375 18.054688 -82.273438 22.140625 -85.109375 C 26.234375 -87.953125 31.082031 -89.632812 36.6875 -90.15625 C 39.269531 -90.320312 41.25 -90.40625 42.625 -90.40625 C 48.988281 -90.40625 54.328125 -89.03125 58.640625 -86.28125 C 60.878906 -84.894531 62.617188 -83.082031 63.859375 -80.84375 C 65.109375 -78.613281 65.734375 -76.207031 65.734375 -73.625 C 65.734375 -71.46875 65.257812 -69.3125 64.3125 -67.15625 L 63.03125 -64.578125 C 62.425781 -63.203125 61.691406 -61.695312 60.828125 -60.0625 Z M 50.625 -70.78125 C 51.0625 -71.894531 51.453125 -73.742188 51.796875 -76.328125 L 52.171875 -79.171875 C 49.585938 -80.296875 47.132812 -80.859375 44.8125 -80.859375 C 42.832031 -80.859375 40.984375 -80.554688 39.265625 -79.953125 C 35.554688 -78.742188 32.472656 -76.910156 30.015625 -74.453125 C 27.566406 -72.003906 25.628906 -69.316406 24.203125 -66.390625 C 22.785156 -63.460938 21.390625 -59.84375 20.015625 -55.53125 C 18.984375 -52.175781 18.46875 -48.429688 18.46875 -44.296875 C 18.46875 -42.054688 18.640625 -38.785156 18.984375 -34.484375 C 19.160156 -33.191406 19.332031 -31.082031 19.5 -28.15625 C 19.582031 -25.832031 20.054688 -21.050781 20.921875 -13.8125 L 21.4375 -9.5625 C 21.957031 -9.382812 22.816406 -9.210938 24.015625 -9.046875 C 25.660156 -8.867188 26.910156 -8.519531 27.765625 -8 C 28.546875 -7.570312 29.320312 -6.863281 30.09375 -5.875 C 30.863281 -4.882812 31.46875 -4.128906 31.90625 -3.609375 C 37.070312 -4.648438 41.484375 -6.757812 45.140625 -9.9375 C 48.796875 -13.125 52.390625 -17.257812 55.921875 -22.34375 C 58.585938 -26.476562 60.269531 -30.179688 60.96875 -33.453125 C 61.21875 -34.742188 61.34375 -35.90625 61.34375 -36.9375 C 61.34375 -39.257812 60.71875 -41.023438 59.46875 -42.234375 C 58.226562 -43.441406 56.53125 -44.046875 54.375 -44.046875 C 53.082031 -44.046875 51.878906 -43.875 50.765625 -43.53125 C 46.890625 -42.40625 42.925781 -39.945312 38.875 -36.15625 C 36.8125 -34.351562 34.742188 -33.453125 32.671875 -33.453125 C 31.378906 -33.453125 30.046875 -33.835938 28.671875 -34.609375 C 27.035156 -35.554688 25.65625 -36.585938 24.53125 -37.703125 C 23.414062 -38.828125 22.472656 -40.296875 21.703125 -42.109375 L 24.671875 -44.171875 C 27.765625 -46.410156 30.128906 -48.003906 31.765625 -48.953125 C 40.117188 -53.429688 46.40625 -60.707031 50.625 -70.78125 Z M 50.625 -70.78125 "/></g></g></g><g fill="#000000" fill-opacity="1"><g transform="translate(183.028926, 112.418098)"><g><path d="M 58.25 -47.265625 C 56.1875 -47.097656 54.679688 -47.015625 53.734375 -47.015625 C 47.359375 -46.578125 42.445312 -46.101562 39 -45.59375 C 37.101562 -45.25 34.78125 -42.925781 32.03125 -38.625 C 29.707031 -35 28.113281 -29.269531 27.25 -21.4375 L 25.828125 -16.796875 C 25.398438 -15.242188 24.753906 -13.90625 23.890625 -12.78125 C 23.378906 -12.175781 22.710938 -11.679688 21.890625 -11.296875 C 21.078125 -10.910156 20.238281 -10.71875 19.375 -10.71875 C 19.800781 -10.71875 19.628906 -11.191406 18.859375 -12.140625 C 17.140625 -14.460938 15.867188 -16.332031 15.046875 -17.75 C 14.222656 -19.175781 13.8125 -20.796875 13.8125 -22.609375 C 13.8125 -23.378906 13.941406 -24.28125 14.203125 -25.3125 C 14.640625 -26.601562 14.898438 -27.894531 14.984375 -29.1875 C 15.148438 -29.707031 15.316406 -30.460938 15.484375 -31.453125 C 15.660156 -32.441406 15.878906 -33.28125 16.140625 -33.96875 C 16.398438 -34.738281 16.53125 -35.46875 16.53125 -36.15625 C 16.53125 -38.050781 15.539062 -39.863281 13.5625 -41.59375 C 10.632812 -44.082031 9.171875 -46.363281 9.171875 -48.4375 C 9.171875 -50.84375 11.066406 -53.082031 14.859375 -55.15625 C 15.203125 -55.320312 15.695312 -55.617188 16.34375 -56.046875 C 16.988281 -56.484375 17.566406 -56.742188 18.078125 -56.828125 C 19.890625 -57.253906 21.203125 -58.070312 22.015625 -59.28125 C 22.835938 -60.488281 23.550781 -62.164062 24.15625 -64.3125 C 25.789062 -70 27.597656 -76.113281 29.578125 -82.65625 L 31 -87.3125 C 31.164062 -87.914062 31.640625 -89.035156 32.421875 -90.671875 C 36.203125 -90.753906 38.890625 -89.71875 40.484375 -87.5625 C 42.078125 -85.414062 42.875 -82.617188 42.875 -79.171875 C 42.875 -78.648438 42.789062 -77.875 42.625 -76.84375 L 41.453125 -71.6875 L 40.6875 -68.84375 L 39.390625 -62 L 46.234375 -61.484375 L 62.640625 -60.0625 L 67.03125 -73.625 L 68.0625 -78.015625 C 70.5625 -81.285156 72.757812 -82.054688 74.65625 -80.328125 C 76.457031 -78.691406 78.023438 -76.863281 79.359375 -74.84375 C 80.703125 -72.820312 81.375 -70.519531 81.375 -67.9375 C 81.375 -65.4375 80.640625 -62.25 79.171875 -58.375 C 79.859375 -57.945312 80.675781 -57.582031 81.625 -57.28125 C 82.570312 -56.976562 83.21875 -56.785156 83.5625 -56.703125 C 86.226562 -55.921875 88.289062 -55.015625 89.75 -53.984375 C 91.21875 -52.953125 92.125 -51.101562 92.46875 -48.4375 C 91.4375 -46.800781 90.0625 -45.722656 88.34375 -45.203125 C 86.625 -44.691406 84.597656 -44.5625 82.265625 -44.8125 C 81.410156 -44.90625 80.296875 -44.953125 78.921875 -44.953125 C 77.023438 -44.953125 75.773438 -44.5625 75.171875 -43.78125 C 74.566406 -43.007812 73.832031 -41.203125 72.96875 -38.359375 L 71.421875 -33.328125 C 69.359375 -26.609375 67.875 -21.222656 66.96875 -17.171875 C 66.0625 -13.128906 65.4375 -8.910156 65.09375 -4.515625 C 65.09375 -4.171875 65.070312 -3.460938 65.03125 -2.390625 C 64.988281 -1.316406 64.707031 -0.457031 64.1875 0.1875 C 63.675781 0.832031 62.859375 1.15625 61.734375 1.15625 C 58.890625 1.414062 57.171875 -0.0859375 56.578125 -3.359375 C 54.503906 -7.921875 53.46875 -12.3125 53.46875 -16.53125 C 53.46875 -18.34375 53.554688 -19.722656 53.734375 -20.671875 C 54.679688 -26.179688 55.925781 -33.195312 57.46875 -41.71875 Z M 58.25 -47.265625 "/></g></g></g></g></g></g></g></g></svg>